<svg width="2000" height="1200" viewBox="0 0 2000 1200" fill="none" xmlns="http://www.w3.org/2000/svg">
  <defs>
    <linearGradient id="bg" x1="0" x2="2000" y1="0" y2="1200" gradientUnits="userSpaceOnUse">
      <stop stop-color="#36111F"/>
      <stop offset=".5" stop-color="#8E2559"/>
      <stop offset="1" stop-color="#F5B4CC"/>
    </linearGradient>
    <radialGradient id="glow" cx="0" cy="0" r="1" gradientUnits="userSpaceOnUse" gradientTransform="translate(1380 420) rotate(138) scale(760 560)">
      <stop stop-color="#FFFFFF" stop-opacity=".78"/>
      <stop offset=".45" stop-color="#F6B4CC" stop-opacity=".34"/>
      <stop offset="1" stop-color="#EF2D83" stop-opacity="0"/>
    </radialGradient>
  </defs>
  <rect width="2000" height="1200" fill="url(#bg)"/>
  <rect width="2000" height="1200" fill="url(#glow)"/>
  <circle cx="1540" cy="382" r="210" fill="#fff" fill-opacity=".14"/>
  <circle cx="1646" cy="304" r="86" fill="#fff" fill-opacity=".18"/>
  <path d="M1120 820c90-180 230-292 398-292 169 0 312 114 402 292H1120Z" fill="#fff" fill-opacity=".18"/>
  <path d="M1232 824c62-115 157-188 270-188 114 0 211 73 273 188H1232Z" fill="#241723" fill-opacity=".24"/>
  <path d="M1340 542c37 39 86 62 141 62s104-23 141-62" stroke="#fff" stroke-opacity=".72" stroke-width="20" stroke-linecap="round"/>
  <path d="M480 814c170-126 367-188 592-188" stroke="#fff" stroke-opacity=".24" stroke-width="16" stroke-linecap="round"/>
  <path d="M512 874c155-90 331-136 528-136" stroke="#fff" stroke-opacity=".18" stroke-width="10" stroke-linecap="round"/>
  <circle cx="390" cy="302" r="132" fill="#fff" fill-opacity=".08"/>
  <circle cx="312" cy="246" r="34" fill="#fff" fill-opacity=".14"/>
</svg>
