<svg width="2000" height="1200" viewBox="0 0 2000 1200" fill="none" xmlns="http://www.w3.org/2000/svg">
  <defs>
    <linearGradient id="bg" x1="2000" x2="0" y1="0" y2="1200" gradientUnits="userSpaceOnUse">
      <stop stop-color="#FFE8F3"/>
      <stop offset=".44" stop-color="#EF2D83"/>
      <stop offset="1" stop-color="#2B101C"/>
    </linearGradient>
    <radialGradient id="sun" cx="0" cy="0" r="1" gradientUnits="userSpaceOnUse" gradientTransform="translate(1320 330) scale(520)">
      <stop stop-color="#fff" stop-opacity=".82"/>
      <stop offset=".42" stop-color="#FFD1E3" stop-opacity=".42"/>
      <stop offset="1" stop-color="#fff" stop-opacity="0"/>
    </radialGradient>
  </defs>
  <rect width="2000" height="1200" fill="url(#bg)"/>
  <rect width="2000" height="1200" fill="url(#sun)"/>
  <path d="M0 824c240-90 464-134 672-132 200 2 366 48 498 136 150 100 306 148 468 144 128-4 249-35 362-94v322H0V824Z" fill="#1F0C15" fill-opacity=".48"/>
  <path d="M0 920c285-105 548-132 789-82 189 39 349 118 482 237H0V920Z" fill="#FFF" fill-opacity=".1"/>
  <circle cx="1110" cy="390" r="118" fill="#fff" fill-opacity=".16"/>
  <circle cx="1188" cy="360" r="52" fill="#fff" fill-opacity=".22"/>
  <path d="M1120 612c48-72 109-108 183-108s136 36 184 108" stroke="#fff" stroke-opacity=".54" stroke-width="14" stroke-linecap="round"/>
  <path d="M930 694c208-58 394-58 558 0" stroke="#fff" stroke-opacity=".24" stroke-width="16" stroke-linecap="round"/>
  <path d="M260 340c92-48 184-72 276-72s184 24 276 72" stroke="#fff" stroke-opacity=".16" stroke-width="18" stroke-linecap="round"/>
</svg>
